<?xml version="1.0" encoding="utf-8"?>
<!-- Generator: Adobe Illustrator 16.0.2, SVG Export Plug-In . SVG Version: 6.00 Build 0)  -->
<!DOCTYPE svg PUBLIC "-//W3C//DTD SVG 1.1//EN" "http://www.w3.org/Graphics/SVG/1.1/DTD/svg11.dtd">
<svg version="1.1" id="Layer_1" xmlns="http://www.w3.org/2000/svg" xmlns:xlink="http://www.w3.org/1999/xlink" x="0px" y="0px"
	 width="638.9px" height="638.9px" viewBox="0 0 638.9 638.9" enable-background="new 0 0 638.9 638.9" xml:space="preserve">
<path fill="#FFFFFF" d="M590.6,290.8c0-11.9-9.7-21.6-21.6-21.6H76.1c-11.9,0-21.601,9.7-21.601,21.6v27H590.6V290.8z M281.8,205.4
	L254,252.9h204.001l-27.7-47.5H281.8z M118.7,230.5l-20,22.4h73l-20.1-22.4H118.7z M246.9,423.6c0,53.9,43.7,97.5,97.5,97.5
	s97.5-43.699,97.5-97.5c0-53.899-43.7-97.499-97.5-97.499S246.9,369.7,246.9,423.6L246.9,423.6z M339.1,344.899
	c4.8,0,9.6,0.5,14.2,1.4l-2.9,15.1c-3.7-0.699-7.5-1.1-11.3-1.1c-32.8,0-59.4,26.7-59.4,59.4c0,7.7,1.5,15.3,4.3,22.399l-14.3,5.801
	c-3.6-8.9-5.5-18.4-5.5-28.2C264.3,378.5,297.9,344.899,339.1,344.899L339.1,344.899z M160.8,576.3h-31.1
	c53.1,39.3,118.8,62.7,189.801,62.7c71,0,136.6-23.3,189.699-62.7H160.8z"/>
<path fill="#FFFFFF" d="M606.9,458.8c20.5-42.1,32-89.4,32-139.3C638.9,143.3,495.6,0,319.501,0C143.3,0,0,143.3,0,319.5
	C0,415.3,42.5,501.4,109.6,560h459.4c11.899,0,21.6-9.7,21.6-21.6v-204.3h-177c26.8,20.699,44,53.1,44,89.499
	c0,62.4-50.8,113.2-113.2,113.2S231.3,486,231.3,423.6c0-36.399,17.301-68.8,44-89.499H54.5v130.1c-23.6-43-37-92.301-37-144.7
	c0-166.5,135.5-302,302.001-302c166.5,0,302,135.5,302,302c0,32.3-5.101,63.399-14.601,92.601V458.8L606.9,458.8z"/>
<g>
	<text transform="matrix(1 0 0 1 95.95 178.9502)" fill="#FFFFFF" font-family="'BerlinSansFB-Bold'" font-size="72">AMBIL FOTO</text>
</g>
</svg>
